HIERARCHY
ROOT Hips
{
  OFFSET 1.44925e-005 102.336 -0.101585
  CHANNELS 6 Xposition Yposition Zposition Zrotation Xrotation Yrotation
  JOINT LeftUpLeg
  {
    OFFSET 8.9458 -8.66707 0.101652
    CHANNELS 3 Zrotation Xrotation Yrotation
    JOINT LeftLeg
    {
      OFFSET 0 -44.4227 1.3727
      CHANNELS 3 Zrotation Xrotation Yrotation
      JOINT LeftFoot
      {
        OFFSET -0.253549 -42.0924 -1.46059
        CHANNELS 3 Zrotation Xrotation Yrotation
        JOINT LeftToes
        {
          OFFSET -0.04 -4.41509 8.4991
          CHANNELS 3 Zrotation Xrotation Yrotation
          End Site
          {
            OFFSET 0.08 -0.047448 9.77979
          }
        }
      }
    }
  }
  JOINT Spine
  {
    OFFSET 0 11.8905 0
    CHANNELS 3 Zrotation Xrotation Yrotation
    JOINT Spine1
    {
      OFFSET 0 25.6574 0.127663
      CHANNELS 3 Zrotation Xrotation Yrotation
      JOINT RightShoulder
      {
        OFFSET -8.99 -0.362252 -0.22
        CHANNELS 3 Zrotation Xrotation Yrotation
        JOINT RightArm
        {
          OFFSET -10.2827 -0.00338 0.322123
          CHANNELS 3 Zrotation Xrotation Yrotation
          JOINT RightForeArm
          {
            OFFSET -26.364 0.099144 -1.42434
            CHANNELS 3 Zrotation Xrotation Yrotation
            JOINT RightHand
            {
              OFFSET -22.0324 0.085362 1.02216
              CHANNELS 3 Zrotation Xrotation Yrotation
              End Site
              {
                OFFSET -13.3284 -0.6 1.50291
              }
            }
          }
        }
      }
      JOINT LeftShoulder1
      {
        OFFSET 8.99 -0.362252 -0.22
        CHANNELS 3 Zrotation Xrotation Yrotation
        JOINT LeftArm
        {
          OFFSET 10.2827 -0.00337999 0.322123
          CHANNELS 3 Zrotation Xrotation Yrotation
          JOINT LeftForeArm
          {
            OFFSET 26.2597 0.099144 -1.42434
            CHANNELS 3 Zrotation Xrotation Yrotation
            JOINT LeftHand
            {
              OFFSET 22.0902 0.085362 1.02216
              CHANNELS 3 Zrotation Xrotation Yrotation
              End Site
              {
                OFFSET 13.419 -0.6 1.50291
              }
            }
          }
        }
      }
      JOINT Head
      {
        OFFSET 0 8.73416 0.011341
        CHANNELS 3 Zrotation Xrotation Yrotation
        End Site
        {
          OFFSET -0.29 12.7742 2.51395
        }
      }
    }
  }
  JOINT RightUpLeg
  {
    OFFSET -8.9458 -8.66707 0.101652
    CHANNELS 3 Zrotation Xrotation Yrotation
    JOINT RightLeg
    {
      OFFSET 0 -44.4227 1.3727
      CHANNELS 3 Zrotation Xrotation Yrotation
      JOINT RightFoot
      {
        OFFSET 0.253549 -42.0924 -1.46059
        CHANNELS 3 Zrotation Xrotation Yrotation
        JOINT RightToes
        {
          OFFSET 0.04 -4.41509 8.4991
          CHANNELS 3 Zrotation Xrotation Yrotation
          End Site
          {
            OFFSET -0.08 -0.137448 9.77979
          }
        }
      }
    }
  }
}
MOTION
Frames:	17
Frame Time:	0.0333333
23.7748 99.5533 4.16837 -4.23702 -1.85879 -85.7624 -3.54761 2.71733 5.31417 0.484656 21.3746 21.0408 -7.21276 -23.5626 -0.906847 -1.33437e-009 8.75235e-006 -1.46841e-008 0.465773 17.7331 -2.37327 -1.1723 -4.43093 -2.18435 36.194 1.7795 0.178919 41.0628 -14.9891 5.2466 5.3456 31.2023 13.7351 -7.57369 9.55933 0.349612 -45.5069 3.69423 -3.56131 -27.793 -3.50844 4.62765 1.22337 28.9427 -23.546 5.82328 9.61819 -0.917488 1.47154 -8.28924 -2.50189 -5.32609 -15.4303 -3.59285 -0.876154 8.32225 -6.13191 9.36398 -0.457133 -0.717441 0.0462048 0.000530889 0.662642 
25.0722 99.8949 4.5977 -4.50748 -1.58259 -86.9873 -3.61655 2.79979 5.44682 -0.022201 20.0637 22.3383 -6.05866 -22.4799 -0.686301 -1.33437e-009 8.75235e-006 -1.46841e-008 0.818791 17.3963 -2.12623 -1.89345 -4.49892 -1.78712 36.2481 1.78456 0.187824 40.9451 -15.7342 5.02786 5.54932 32.6923 13.0296 -7.49952 9.56099 0.385902 -45.5042 3.70634 -3.58482 -27.3075 -3.46921 4.49801 1.05463 29.0407 -23.2213 5.82328 9.61819 -0.917488 1.04333 -8.17899 -2.2091 -5.27978 -15.7118 -3.53302 -0.858409 10.7969 -9.51327 9.2515 -4.14779 -0.436483 0.0462048 0.000530889 0.662642 
26.2584 100.107 4.9003 -5.24495 -1.32767 -88.5107 -3.57655 3.26511 5.51643 -0.603538 19.2046 23.9728 -5.20653 -21.6663 -0.53827 -1.33437e-009 8.75235e-006 -1.46841e-008 0.888076 17.3674 -1.77789 -2.44703 -4.23117 -1.34554 36.0872 1.78683 0.218344 41.202 -17.0852 5.50995 6.00321 34.7429 11.8207 -7.51821 9.56074 0.370908 -45.4768 3.71311 -3.60188 -27.0204 -4.80118 4.52219 1.01998 29.4711 -22.9142 5.82328 9.61819 -0.917488 0.740475 -8.59454 -1.59418 -5.00169 -16.4101 -2.7265 -1.07652 16.8384 -12.063 8.56712 -7.09662 -0.21035 0.0462048 0.000530889 0.662642 
27.288 100.226 5.06554 -6.1504 -1.15585 -89.5525 -3.55743 3.95052 5.38647 -1.16597 18.4871 25.2965 -4.57837 -21.0472 -0.43698 -1.33437e-009 8.75235e-006 -1.46841e-008 0.413112 17.4174 -1.57894 -2.55345 -3.93276 -1.21602 35.9442 1.78568 0.235171 41.5637 -18.3814 6.11602 6.43718 36.3949 10.7337 -7.54268 9.5629 0.307141 -45.4176 3.70663 -3.59842 -26.8346 -6.03332 4.87716 1.06321 29.7808 -22.7968 5.82328 9.61819 -0.917488 0.631288 -8.86497 -0.813584 -4.91197 -16.7095 -0.831281 -0.975822 24.13 -13.8946 8.14256 -9.51986 -0.049978 0.0462048 0.000530889 0.662642 
28.1515 100.331 5.13688 -6.83885 -1.09657 -89.8516 -3.48591 4.42837 5.14067 -1.49457 17.88 25.8854 -4.035 -20.4659 -0.353648 -1.33437e-009 8.75235e-006 -1.46841e-008 -0.0801943 17.2274 -1.61949 -2.38411 -3.79182 -1.40142 35.9473 1.78295 0.224423 41.6687 -18.9853 6.22352 6.56193 36.7721 10.4049 -7.63466 9.56636 0.216666 -45.5208 3.71483 -3.59853 -26.4749 -5.89664 5.31275 0.914308 29.7156 -22.6281 5.82328 9.61819 -0.917488 0.580769 -8.5354 -0.274867 -5.00765 -16.4258 -0.015864 -0.934282 30.8613 -14.3383 8.20417 -11.7976 0.102632 0.0462048 0.000530889 0.662642 
28.8444 100.431 5.12643 -7.20718 -1.04336 -89.685 -3.33614 4.52595 4.98686 -1.65103 17.5334 25.9014 -3.61019 -19.9019 -0.289632 -1.33437e-009 8.75235e-006 -1.46841e-008 -0.423362 16.652 -1.69416 -2.1901 -3.74775 -1.61704 35.9239 1.78021 0.214215 41.5731 -18.8743 5.74116 6.45072 36.0955 10.7138 -7.78002 9.57037 0.134532 -45.6615 3.73145 -3.60902 -26.153 -5.21369 5.56317 0.499201 29.8116 -22.0627 5.82328 9.61819 -0.917488 0.582892 -7.74466 -0.153055 -5.21941 -15.5049 -0.0785404 -1.03882 35.9694 -14.9198 8.86201 -13.8941 0.278818 0.0462048 0.000530889 0.662642 
29.4012 100.524 5.02435 -7.40427 -1.10263 -89.4333 -3.23969 4.53699 4.89214 -1.79746 17.1701 25.7691 -3.30387 -19.3224 -0.24218 -1.33437e-009 8.75235e-006 -1.46841e-008 -0.846731 15.8337 -1.62929 -2.01349 -3.69506 -1.6926 35.8357 1.77769 0.217589 41.4391 -18.3455 5.02169 6.36529 35.3131 11.0759 -7.83132 9.57421 0.11639 -45.5493 3.72477 -3.61319 -26.1914 -5.41754 5.73109 0.0477017 30.4779 -21.2578 5.82328 9.61819 -0.917488 0.737401 -6.88238 -0.31179 -5.54111 -13.8692 -0.322489 -1.1433 39.1357 -16.4598 9.4135 -15.7583 0.452844 0.0462048 0.000530889 0.662642 
29.8692 100.611 4.8442 -7.5306 -1.30369 -89.1861 -3.25618 4.63541 4.76887 -1.92436 16.607 25.6034 -3.05191 -18.7367 -0.203167 -1.33437e-009 8.75235e-006 -1.46841e-008 -1.31364 14.9494 -1.48353 -1.89608 -3.61247 -1.66085 35.8651 1.77617 0.217186 41.2689 -17.9443 4.42505 6.41345 35.292 11.0786 -7.74342 9.57716 0.186089 -45.344 3.70954 -3.61511 -26.362 -6.2572 6.00775 -0.254863 31.1645 -20.6602 5.82328 9.61819 -0.917488 0.936329 -6.18251 -0.633976 -5.92132 -11.6202 -0.65556 -1.23292 40.588 -18.1512 9.03678 -16.8732 0.510811 0.0462048 0.000530889 0.662642 
30.2707 100.642 4.60237 -7.54894 -1.60464 -88.933 -3.36784 4.54755 4.62513 -1.97493 16.2818 25.3953 -2.92474 -18.2936 -0.181503 -1.33437e-009 8.75235e-006 -1.46841e-008 -1.6808 13.9587 -1.32786 -1.97442 -3.44644 -1.56682 35.9923 1.77484 0.208518 41.1818 -18.3257 4.06509 6.5433 36.263 10.6454 -7.60314 9.57853 0.256757 -45.3925 3.72111 -3.6299 -26.288 -6.65568 6.32157 -0.480468 31.3548 -20.3379 5.82328 9.61819 -0.917488 0.964919 -5.69418 -1.1235 -6.32483 -8.81758 -1.04559 -1.25211 40.1667 -18.7091 8.74377 -16.6983 0.47261 0.0462048 0.000530889 0.662642 
30.6106 100.63 4.3042 -7.47886 -2.08006 -88.701 -3.67068 4.29582 4.40283 -1.9798 16.1594 25.3182 -2.95288 -17.9146 -0.176381 -1.33437e-009 8.75235e-006 -1.46841e-008 -2.08235 12.8204 -1.15482 -2.18074 -3.12761 -1.41862 36.0317 1.7737 0.204422 41.3721 -19.4284 3.838 6.67306 37.5659 10.0276 -7.48147 9.57769 0.225517 -45.5173 3.73528 -3.63809 -26.1321 -6.72452 6.55964 -0.69768 31.4746 -20.0614 5.82328 9.61819 -0.917488 0.863843 -5.43645 -1.70029 -6.80386 -5.16078 -1.35366 -1.17009 36.8223 -17.7392 10.1414 -16.2073 0.546289 0.0462048 0.000530889 0.662642 
30.8743 100.689 3.96552 -7.45794 -2.74975 -88.5227 -4.23543 4.46789 3.97352 -1.95099 15.3461 25.5307 -2.93157 -17.2632 -0.161298 -1.33437e-009 8.75235e-006 -1.46841e-008 -2.53587 11.7144 -1.02087 -2.3779 -2.73811 -1.23462 36.0855 1.77275 0.195982 41.6876 -20.2275 3.63787 6.7577 38.1608 9.65533 -7.50793 9.57356 0.149193 -45.3724 3.71416 -3.61965 -26.1486 -6.83347 6.83102 -0.820472 31.6374 -19.8745 5.82328 9.61819 -0.917488 0.835545 -5.44895 -2.15918 -7.33746 -0.546068 -1.6249 -0.99353 30.0707 -16.2656 12.2716 -16.934 0.785561 0.0462048 0.000530889 0.662642 
31.0705 100.904 3.62904 -7.48948 -3.21961 -88.5465 -4.70249 5.22485 3.42232 -1.81932 13.5226 26.0129 -2.6724 -16.252 -0.121163 -1.33437e-009 8.75235e-006 -1.46841e-008 -2.3419 10.7472 -0.993211 -2.8376 -2.41098 -0.971069 36.3689 1.77199 0.167553 41.8323 -20.1418 3.55258 6.85614 37.9755 9.58713 -7.79684 9.55852 0.174063 -45.2564 3.70072 -3.61145 -25.9574 -6.69565 7.17968 -0.976736 31.4494 -19.7628 5.82328 9.61819 -0.917488 0.840689 -5.68817 -2.36868 -7.59244 4.01495 -3.12769 -1.21739 21.7632 -14.2674 12.4578 -18.1944 0.932625 0.0462048 0.000530889 0.662642 
31.2842 101.274 3.34962 -7.337 -2.89112 -89.0181 -4.45832 5.91344 3.07497 -1.55505 11.4027 26.681 -2.24866 -15.073 -0.0719634 -1.33437e-009 8.75235e-006 -1.46841e-008 -0.65347 9.7298 -0.996915 -3.86346 -2.16964 -0.529244 36.6234 1.77142 0.146378 41.9476 -19.8611 3.75197 7.04812 38.0787 9.37587 -8.10164 9.53669 0.29197 -45.6126 3.74853 -3.64884 -25.2215 -6.8778 7.36281 -1.51193 31.6298 -19.1338 5.82328 9.61819 -0.917488 0.647129 -5.96154 -2.3415 -6.99004 6.84595 -6.99589 -1.71788 15.0579 -10.5565 10.3677 -17.9178 0.716055 0.0462048 0.000530889 0.662642 
31.6205 101.672 3.10769 -6.85971 -1.88568 -89.9273 -3.51187 5.79704 3.08364 -1.26136 10.0893 27.4448 -1.98836 -14.0697 -0.0427665 -1.33437e-009 8.75235e-006 -1.46841e-008 1.8625 8.65504 -0.881173 -4.97391 -2.05889 0.00861615 36.3759 1.77102 0.17378 42.3595 -19.9033 4.22373 7.29571 38.8879 8.87642 -8.04001 9.53361 0.392535 -46.0124 3.80113 -3.68814 -24.6341 -9.05205 7.2591 -2.39101 33.5886 -17.5965 5.82328 9.61819 -0.917488 0.278555 -6.14308 -2.09191 -6.01897 7.48153 -7.66649 -1.05014 11.7285 -9.62463 8.46318 -16.0124 0.401312 0.0462048 0.000530889 0.662642 
32.1091 101.906 2.79863 -6.35976 -1.03727 -90.6224 -2.62173 5.00721 3.24012 -1.08443 9.97011 28.079 -2.10359 -13.4914 -0.0422179 -1.33437e-009 8.75235e-006 -1.46841e-008 3.16617 8.06382 -0.702561 -5.16162 -2.17254 0.289989 35.8003 1.77081 0.231322 42.7848 -19.2417 4.81041 7.35863 39.0548 8.85125 -7.76791 9.5406 0.505516 -45.7561 3.76905 -3.66606 -25.1338 -12.7393 7.18439 -3.0395 36.3962 -16.0474 5.82328 9.61819 -0.917488 0.070832 -6.4659 -1.56705 -5.17847 7.08872 -7.27017 -0.628594 10.4687 -9.20603 8.22612 -14.2967 0.268806 0.0462048 0.000530889 0.662642 
32.6937 101.972 2.38562 -6.30364 -0.926213 -90.9463 -2.28361 4.52592 3.32745 -1.06007 10.0711 28.2843 -2.31976 -13.1063 -0.0478948 -1.33437e-009 8.75235e-006 -1.46841e-008 2.41642 8.39136 -0.729227 -4.12901 -2.40228 0.0517763 35.5971 1.77079 0.249842 42.5721 -16.8396 5.44924 6.97914 37.2228 10.0631 -7.83492 9.52615 0.690746 -45.1879 3.6963 -3.61341 -26.3543 -14.1684 7.38023 -2.92939 36.8068 -15.9397 5.82328 9.61819 -0.917488 0.231651 -7.28331 -0.776736 -4.83827 6.88043 -6.99561 -0.567558 9.91742 -9.11347 8.3378 -13.8813 0.247895 0.0462048 0.000530889 0.662642 
33.2885 101.985 1.96592 -6.63286 -1.1068 -90.8116 -2.15015 4.61036 3.37713 -1.11055 9.84835 28.071 -2.34716 -12.7271 -0.043652 -1.33437e-009 8.75235e-006 -1.46841e-008 1.06563 9.19607 -1.02074 -2.7264 -2.44378 -0.507685 35.9436 1.77096 0.209934 41.8291 -13.7793 6.0935 6.28988 34.0359 12.0105 -8.27053 9.49719 0.789856 -45.1989 3.68918 -3.59795 -27.0423 -11.7125 7.54552 -2.54295 34.584 -17.0103 5.82328 9.61819 -0.917488 0.602101 -8.40066 0.0452811 -4.66649 6.7869 -6.89171 -0.645475 10.0701 -9.50321 7.68568 -14.0736 0.22384 0.0462048 0.000530889 0.662642 
